<svg xmlns="http://www.w3.org/2000/svg" version="1.1" xmlns:xlink="http://www.w3.org/1999/xlink" width="512" height="512" x="0" y="0" viewBox="0 0 96 96" style="enable-background:new 0 0 512 512" xml:space="preserve" class=""><g><path d="m58.608 10.804 18.745 19.922H62.197a3.596 3.596 0 0 1-3.589-3.592zM34.211 62.108h-2.788v3.948h2.605c.717 0 1.267-.162 1.656-.491.383-.329.577-.793.577-1.386-.001-1.376-.686-2.066-2.05-2.071zM47.277 62.965h3.543l-1.774-5.722z" fill="#ffffff" opacity="1" data-original="#ffffff" class=""></path><path d="M62.197 34.588c-4.112 0-7.456-3.344-7.456-7.453V7.861H22.46c-3.503 0-6.35 2.853-6.35 6.353v67.572c0 3.5 2.847 6.353 6.35 6.353h51.08c3.503 0 6.35-2.853 6.35-6.353V34.588zm-23.51 33.29c-1.019.809-2.54 1.219-4.546 1.24h-6.693V52.627h5.921c2.125 0 3.737.388 4.843 1.165s1.661 1.909 1.661 3.387c0 .852-.2 1.585-.588 2.189-.394.604-.971 1.046-1.737 1.332.863.226 1.521.652 1.985 1.267.458.62.69 1.375.69 2.265.001 1.618-.512 2.832-1.536 3.646zm14.048 1.24-.96-3.085h-5.447l-.955 3.085H41.13l6.045-16.491h3.737l6.094 16.491zm17.057-13.422h-4.945v13.423h-3.98V55.696h-4.854v-3.069h13.779z" fill="#ffffff" opacity="1" data-original="#ffffff" class=""></path><path d="M35.354 59.023c.367-.313.555-.766.555-1.37 0-.701-.2-1.203-.604-1.51-.399-.302-1.046-.458-1.936-.458h-1.947v3.813h2.071c.869-.006 1.489-.162 1.861-.475z" fill="#ffffff" opacity="1" data-original="#ffffff" class=""></path></g></svg>
