<svg xmlns="http://www.w3.org/2000/svg" version="1.1" xmlns:xlink="http://www.w3.org/1999/xlink" width="512" height="512" x="0" y="0" viewBox="0 0 24 25" style="enable-background:new 0 0 512 512" xml:space="preserve" class=""><g><path fill="#ffffff" fill-rule="evenodd" d="M6 2.908a4 4 0 0 0-4 4v12a4 4 0 0 0 4 4h12a4 4 0 0 0 4-4v-12a4 4 0 0 0-4-4zm2.36 3.528a2.577 2.577 0 0 0-2.577 2.577v1.936l-.34.318a2.25 2.25 0 0 0 0 3.281l.34.32v1.934A2.577 2.577 0 0 0 8.36 19.38a.75.75 0 0 0 0-1.5 1.077 1.077 0 0 1-1.077-1.077v-2.26a.75.75 0 0 0-.237-.546l-.576-.541a.75.75 0 0 1 0-1.094l.576-.541a.75.75 0 0 0 .237-.547v-2.26c0-.594.482-1.077 1.077-1.077a.75.75 0 1 0 0-1.5zm9.857 2.577a2.577 2.577 0 0 0-2.577-2.577.75.75 0 1 0 0 1.5c.595 0 1.077.483 1.077 1.077v2.26a.75.75 0 0 0 .237.547l.576.541a.75.75 0 0 1 0 1.094l-.577.54a.75.75 0 0 0-.236.548v2.26c0 .594-.482 1.076-1.077 1.076a.75.75 0 1 0 0 1.5 2.577 2.577 0 0 0 2.577-2.577v-1.935l.34-.319a2.25 2.25 0 0 0 0-3.28l-.34-.32zm-3.95.248a.75.75 0 0 0-1.394-.557l-3.14 7.85a.75.75 0 0 0 1.393.557z" clip-rule="evenodd" opacity="1" data-original="#000000" class=""></path></g></svg>