<svg xmlns="http://www.w3.org/2000/svg" version="1.1" xmlns:xlink="http://www.w3.org/1999/xlink" width="512" height="512" x="0" y="0" viewBox="0 0 24 25" style="enable-background:new 0 0 512 512" xml:space="preserve" class=""><g><path fill="#ffffff" fill-rule="evenodd" d="M2.25 7.908A3.75 3.75 0 0 1 6 4.158h12a3.75 3.75 0 0 1 3.75 3.75v10a3.75 3.75 0 0 1-3.75 3.75H6a3.75 3.75 0 0 1-3.75-3.75v-9zM20 7.158h.122A2.251 2.251 0 0 0 18 5.658H6a2.25 2.25 0 0 0-2.122 1.5H4zm-5.45 11.5h-3.5a.75.75 0 0 1 0-1.5h3.5a.75.75 0 0 1 0 1.5zm-7.52-6.326a.75.75 0 1 0-.96 1.152l2.31 1.924-2.31 1.924a.75.75 0 1 0 .96 1.152l2.54-2.116c.6-.5.6-1.42 0-1.92z" clip-rule="evenodd" opacity="1" data-original="#000000" class=""></path></g></svg>